<svg width= "56" height= "56" xmlns="http://www.w3.org/2000/svg" viewBox="0 0 600 600"><path fill="#bbcde4" stroke="#bbcde4" d="M0 300.002v300.001l300.25-.251 300.25-.252.252-299.75L601.003 0H0v300.002m.493.498c0 165 .116 232.351.257 149.669.141-82.682.141-217.682 0-300C.609 67.851.493 135.5.493 300.5M521.357 35.436c-1.311.934-2.335 2.992-2.635 5.296-.271 2.072-1.714 6.918-3.208 10.768-3.831 9.872-8.058 24.213-11.067 37.539-1.416 6.276-3.031 11.96-3.588 12.631-3.082 3.713 3.042 10.607 7.585 8.538 1.375-.627 2.695-2.168 2.932-3.424 2.148-11.37 1.71-11.031 16.93-13.106l4.806-.655 1.597 3.738c.879 2.057 2.325 5.73 3.214 8.162 1.182 3.232 2.364 4.673 4.39 5.348 6.44 2.147 10.628-2.155 6.946-7.135-5.909-7.993-6.544-11.885-2.009-12.323 2.93-.282 3.279-.662 3.549-3.864.431-5.132-2.333-7.448-7.264-6.086-2.689.742-3.754.695-4.053-.178-3.521-10.308-7.755-34.307-6.473-36.701 3.357-6.274-5.612-12.854-11.652-8.548m38.762 4.469c-.759.481-1.555 2.387-1.77 4.235-1 8.625-1.133 8.233 3.319 9.787 4.58 1.599 8 .257 6.868-2.694-.306-.796-.06-3.287.546-5.537.957-3.554.868-4.26-.682-5.393-2.034-1.487-6.241-1.69-8.281-.398m-1.32 19.971c-1.634 2.334-1.566 44.082.08 48.346 2.22 5.753 12.211 3.807 10.581-2.06-1.656-5.962-1.674-36.847-.024-40.039 2.217-4.287 2.002-5.042-1.904-6.674-4.658-1.946-7.156-1.824-8.733.427m-38.67 9.582c-1.714 4.737-3.391 10.327-3.726 12.422l-.609 3.81 6.353-.991c3.494-.545 6.504-1.114 6.689-1.264.511-.416-4.059-20.818-4.876-21.762-.393-.455-2.117 3.048-3.831 7.785M423 108.953c-6.673 1.202-11.285 3.406-15.954 7.625-6.75 6.098-7.478 8.205-8.085 23.422l-.538 13.5-55.324 127c-30.429 69.85-55.611 127.307-55.962 127.682-.35.375-22.879-53.175-50.063-119L187.647 169.5l-.573-11.079c-.67-12.934-2.335-16.397-11.321-23.553-12.781-10.178-26.914-14.292-49.253-14.336-18.699-.037-23.611 1.173-30.936 7.621-9.94 8.75-12.336 17.16-8.075 28.347 1.466 3.85 3.735 9.932 5.042 13.517l2.376 6.516 3.077 144.223c3.452 161.737 3.868 146.02-4.107 155.108-4.439 5.058-5.578 9.453-3.84 14.821 7.097 21.912 31.658 39.49 55.463 39.693 13.737.117 30.975-11.007 34.311-22.142 1.732-5.782 1.487-9.129-1.849-25.236-2.973-14.356-3.038-15.351-6.455-100-1.898-47.025-3.443-88.65-3.434-92.5l.017-7 36.119 96c34.869 92.676 36.108 96.208 35.777 102-1.028 17.993-.589 23.791 2.239 29.548 12.188 24.818 53.27 33.787 76.057 16.604 6.909-5.21 8.998-10.431 8.261-20.652-.337-4.675-.88-12.847-1.207-18.159l-.595-9.66 32.052-72.34c17.629-39.788 37.093-83.723 43.254-97.633 6.161-13.911 11.378-25.116 11.594-24.9.216.215 3.786 38.147 7.935 84.292 8.401 93.449 8.319 86.79 1.222 98.662-13.459 22.516-7.047 36.502 23.702 51.703 26.19 12.947 48.896 11.511 62.818-3.974 8.639-9.608 8.474-15.653-.889-32.539-3.035-5.474-6.141-11.977-6.902-14.452-1.207-3.925-21.617-283.593-21.549-295.272.019-3.237.787-4.515 5.411-9 2.964-2.876 5.889-6.211 6.5-7.412 1.474-2.898 1.418-12.51-.094-16.019-8.278-19.22-43.183-35.599-66.795-31.344" fill-rule="evenodd"/><path fill="#e1e2e4" stroke="#e1e2e4" d="M0 300.002v300.001l300.25-.251 300.25-.252.252-299.75L601.003 0H0v300.002m.493.498c0 165 .116 232.351.257 149.669.141-82.682.141-217.682 0-300C.609 67.851.493 135.5.493 300.5m520.26-265.11c-.96.729-2.035 2.852-2.389 4.718-.354 1.865-3.018 10.592-5.921 19.392-2.903 8.8-6.454 21.4-7.892 28-1.437 6.6-3.089 12.945-3.671 14.101-2.826 5.611 2.554 11.33 7.87 8.366 1.652-.921 2.855-2.519 3.013-4 .921-8.655 1.772-9.684 8.997-10.891 3.707-.619 7.877-1.353 9.267-1.631 2.243-.449 2.832.117 5.25 5.047 1.498 3.054 2.723 6.387 2.723 7.408 0 3.669 6.881 6.304 10.878 4.165 2.22-1.188 2.934-5.445 1.103-6.577-1.181-.73-5.981-9.923-5.981-11.455 0-.568 1.36-1.033 3.021-1.033 4.139 0 6.089-3.944 3.879-7.843-1.31-2.31-2.147-2.657-6.413-2.657h-4.906L536.678 69c-2.022-8.013-2.986-14.533-3.179-21.5-.152-5.5-.327-10.293-.388-10.652-.401-2.355-9.727-3.456-12.358-1.458m39.058 4.86c-2.021 1.608-3.169 11.21-1.505 12.585 1.68 1.388 7.975 2.361 9.295 1.436.606-.424 1.4-3.754 1.766-7.4.632-6.307.554-6.659-1.602-7.237-3.55-.951-6.246-.742-7.954.616m-1.172 19.596c-2.285 2.525-2.15 44.806.156 48.892 1.582 2.804 4.935 3.695 8.622 2.293 2.711-1.03 2.802-1.271 2.017-5.305-1.487-7.635-1.095-36.828.543-40.472 1.841-4.096.415-5.861-5.491-6.798-3.269-.518-4.353-.26-5.847 1.39m-37.407 7.335c-2.221 6.015-3.755 10.983-4.692 15.19l-.639 2.872 5.799-.707c7.618-.928 7.466-.569 4.963-11.707-2.681-11.937-2.991-12.259-5.431-5.648m-101.303 42.117c-15.642 4.456-22.705 14.733-21.444 31.202.429 5.602.192 9.349-.792 12.5-1.585 5.079-109.419 253.097-110.534 254.23-.395.401-22.977-53.149-50.181-119L187.516 168.5l-.106-9.528c-.128-11.617-1.548-15.069-8.994-21.875-13.633-12.459-31.107-17.688-56.622-16.943-19.629.574-28.662 5.529-34.823 19.101-2.946 6.49-2.468 10.676 2.691 23.583C94.08 173.891 94.345 175.1 94.734 186c1.554 43.523 5.863 278.91 5.14 280.82-.482 1.275-2.904 4.807-5.381 7.848-5.058 6.209-6.003 8.802-5.141 14.112 1.828 11.264 12.588 24.624 26.297 32.649 22.028 12.894 42.356 12.007 57.306-2.501 8.838-8.578 9.696-14.977 5.042-37.608-2.99-14.536-3.02-15.011-6.532-105.096-1.941-49.771-3.39-90.633-3.219-90.803.17-.171 16.385 42.577 36.032 94.995 37.827 100.922 36.774 97.592 34.76 109.887-5.858 35.767 44.193 60.162 78.461 38.241 8.336-5.332 10.019-9.834 8.941-23.911-.469-6.123-.867-14.733-.884-19.133l-.03-8 41.36-93 42.918-96.5c.933-2.096 1.696-2.898 1.902-2 1.43 6.232 14.925 166.703 14.265 169.63-.439 1.945-2.79 6.987-5.224 11.203-12.395 21.472-8.206 34.097 16.049 48.376 27.311 16.077 54.167 16.828 69.064 1.931 9.344-9.344 10.274-16.945 3.606-29.478a1549.618 1549.618 0 0 1-7.203-13.726l-3.393-6.563-10.429-146.437c-5.735-80.54-10.431-147.466-10.435-148.726-.004-1.442 2.356-4.804 6.379-9.087 8.868-9.442 9.698-16.48 3.244-27.493-10.381-17.713-47.405-32.114-67.7-26.332" fill-rule="evenodd"/><path fill="#e3e3e4" stroke="#e3e3e4" d="M0 300.002v300.001l300.25-.251 300.25-.252.252-299.75L601.003 0H0v300.002m.493.498c0 165 .116 232.351.257 149.669.141-82.682.141-217.682 0-300C.609 67.851.493 135.5.493 300.5M520.558 35.334c-1.004.734-2.183 3.321-2.621 5.75-.438 2.429-2.838 10.234-5.333 17.345-2.495 7.111-5.926 19.036-7.623 26.5-1.697 7.464-3.799 15.017-4.672 16.785-1.455 2.951-1.45 3.422.065 5.735 3.444 5.255 11.626 4.228 11.626-1.46 0-7.475 1.978-9.487 10.618-10.802 4.335-.66 8.412-1.197 9.059-1.194 1.346.008 6.323 10.313 6.323 13.093 0 3.464 8.984 5.53 11.8 2.714 1.814-1.814 1.44-5.916-.752-8.249-1.074-1.143-2.655-3.76-3.514-5.815-1.555-3.721-1.551-3.736.881-3.736 5.056 0 7.168-5.295 3.946-9.894-1.425-2.035-2.202-2.263-5.959-1.748-4.296.589-4.328.571-5.379-3.133-3.413-12.026-6.07-28.684-5.45-34.166.6-5.308.461-5.922-1.682-7.423-2.822-1.976-8.824-2.137-11.333-.302m38.843 4.431c-.604.404-1.394 3.31-1.755 6.458-.767 6.68 1.425 9.182 7.533 8.596 3.316-.319 3.322-.329 4.15-7.211.645-5.352.533-7.08-.5-7.735-1.636-1.037-7.93-1.109-9.428-.108m-1.366 20.169c-1.366 2.552-1.353 42.382.015 47.308 1.173 4.221 4.365 5.708 8.84 4.119 2.348-.834 2.584-1.375 2.348-5.394-1.475-25.203-1.383-34.121.404-39.091l1.826-5.079-2.345-1.898c-3.199-2.591-9.693-2.57-11.088.035m-35.334 3.776c-.304.985-1.711 5.096-3.127 9.136-3.561 10.161-3.476 12.487.426 11.733 1.65-.318 4.268-.822 5.818-1.118l2.818-.54-2.264-10.074c-2.453-10.908-2.832-11.852-3.671-9.137m-102.983 45.382c-14.982 3.527-21.083 12.354-21.365 30.908l-.189 12.5-55.332 127.231c-30.433 69.977-55.598 127.24-55.923 127.25-.325.011-22.793-53.814-49.929-119.61l-49.338-119.63-.105-9.62c-.122-11.114-1.241-13.954-8.071-20.499-21.174-20.288-69.115-25.069-85.643-8.54-9.093 9.093-11.011 18.144-6.233 29.418 7.286 17.193 6.326 1.283 9.719 161 1.682 79.2 2.765 145.146 2.407 146.546-.359 1.4-2.916 5.368-5.684 8.816-6.47 8.062-6.739 12.132-1.522 23.019 8.466 17.664 30.368 31.76 50.99 32.817 8.874.454 9.112.406 17-3.502 20.852-10.329 23.438-17.36 17.541-47.696-3.108-15.989-3.113-16.06-6.472-104.5-1.849-48.675-3.263-88.607-3.144-88.738.12-.131 16.334 42.746 36.031 95.281l35.814 95.52-.875 6.718c-2.365 18.167.255 28.051 10.017 37.794 16.357 16.324 44.092 20.269 64.82 9.221 12.429-6.625 14.47-12.293 12.047-33.45-1.572-13.724-1.562-14.332.343-20 4.138-12.311 84.879-192.817 85.139-190.338C413.65 305.035 426 447.843 426 451.654c0 4.055-.763 6.55-3.518 11.511-11.945 21.504-11.884 30.731.274 42.038 25.146 23.384 63.352 29.783 81.723 13.689 12.12-10.618 12.461-16.975 2.018-37.585l-7.503-14.807-10.502-147.918c-11.643-163.999-11.266-149.602-4.063-155.096 4.146-3.162 7.571-9.778 7.571-14.624 0-23.095-42.888-46.692-72.282-39.77" fill-rule="evenodd"/><path fill="#7cace4" stroke="#7cace4" d="M0 300.002v300.001l300.25-.251 300.25-.252.252-299.75L601.003 0H0v300.002m.493.498c0 165 .116 232.351.257 149.669.141-82.682.141-217.682 0-300C.609 67.851.493 135.5.493 300.5M519.769 35.75c-.847.962-1.768 3.325-2.046 5.25-.278 1.925-2.578 9.358-5.11 16.518-2.532 7.16-6.15 19.535-8.04 27.5-1.89 7.965-4.01 15.929-4.711 17.698-1.164 2.938-1.069 3.435 1.106 5.75 4.233 4.506 10.945 3.047 11.108-2.416.218-7.317 2.107-9.448 9.51-10.73 11.052-1.914 10.88-1.963 13.281 3.813 1.173 2.824 2.133 5.749 2.133 6.5 0 5.313 11.974 7.712 14.192 2.844.963-2.113.822-2.967-.866-5.25C545.004 96.028 543.918 92 547.3 92c3.159 0 4.7-1.818 4.7-5.545 0-4.558-2.943-6.86-7.915-6.193l-3.96.531-2.509-10.647c-4.17-17.695-4.868-22.851-3.611-26.663 1.926-5.835-1.452-9.483-8.784-9.483-2.471 0-4.478.644-5.452 1.75m38.898 3.917c-.367.366-.667 2.196-.667 4.065 0 1.87-.46 4.26-1.023 5.311C555.4 51.99 558.964 55 564.031 55c2.376 0 4.173-.514 4.375-1.25 1.58-5.749 2.252-12.405 1.364-13.5-1.051-1.294-9.926-1.76-11.103-.583m-.592 19.742c-2.488 2.998-1.449 47.996 1.185 51.341 2.935 3.725 12.664.103 11.144-4.149-1.608-4.499-1.628-36.584-.024-40.592 2.071-5.177.569-7.115-6.001-7.747-3.775-.362-5.278-.089-6.304 1.147m-37.441 10.598c-3.791 10.228-4.503 15.381-2.03 14.694 1.043-.289 3.584-.811 5.646-1.159 4.395-.741 4.248.135 1.83-10.929-2.424-11.094-2.318-11.044-5.446-2.606M419 108.877c-15.337 5.038-21 13.583-21 31.686v11.627l-55.091 126.655c-30.299 69.66-55.387 126.966-55.75 127.346-.362.38-22.821-53.068-49.909-118.774L188 167.952v-9.008c0-10.163-1.125-13.734-6.125-19.444-18.447-21.065-69.633-27.747-87.364-11.403-10.838 9.99-12.234 18.666-5.537 34.403 4.215 9.905 4.264 10.157 5.128 26.5 1.237 23.388 6.247 274.473 5.534 277.315-.325 1.293-2.41 4.419-4.634 6.945-7.97 9.055-8.342 12.906-2.444 25.333 4.071 8.577 13.752 18.237 24.111 24.056 21.527 12.093 40.766 11.131 55.874-2.795 9.744-8.982 10.805-14.71 6.558-35.394-1.698-8.272-3.327-17.722-3.62-21-.853-9.557-6.624-166.106-6.287-170.537.258-3.391 5.801 10.624 35.306 89.277 34.798 92.762 34.998 93.337 34.606 99.8-1.094 18.067-.743 22.16 2.493 29 11.103 23.473 46.287 33.415 72.077 20.366 12.814-6.482 15.272-12.684 13.029-32.866-.856-7.7-1.252-15.699-.881-17.776.668-3.732 84.193-193.628 85.194-193.691.286-.018 3.841 37.33 7.9 82.995 8.247 92.761 8.199 85.388.639 97.972-9.977 16.61-7.824 29.825 6.621 40.633 30.875 23.1 63.846 26.07 81.211 7.314 8.839-9.548 9.255-15.599 2.007-29.233-2.401-4.518-5.681-10.914-7.288-14.214l-2.922-6L488.748 319c-7.086-100.133-10.134-148.182-9.49-149.625.522-1.168 2.977-3.82 5.456-5.892 22.613-18.902-10.1-54.117-51.214-55.131-6.6-.163-13.125.073-14.5.525" fill-rule="evenodd"/></svg>